<svg width="24" height="24" viewBox="0 0 24 24" fill="none" xmlns="http://www.w3.org/2000/svg">
<path fill-rule="evenodd" clip-rule="evenodd" d="M14 1H10.0001L8.66675 3H7C4.79086 3 3 4.79086 3 7V10H5V7C5 5.89543 5.89543 5 7 5H16.6667L14.6667 2L14 1ZM16.5352 3H17C19.2091 3 21 4.79086 21 7V10H19V7C19 6.29283 18.633 5.67138 18.079 5.31575L16.5352 3ZM5 14V17C5 18.1046 5.89543 19 7 19H12V21H7C4.79086 21 3 19.2091 3 17V14H5ZM20 18C20 19.1046 19.1046 20 18 20C16.8954 20 16 19.1046 16 18C16 16.8954 16.8954 16 18 16C19.1046 16 20 16.8954 20 18ZM12 15.5C14.2091 15.5 16 13.7091 16 11.5C16 9.29086 14.2091 7.5 12 7.5C9.79086 7.5 8 9.29086 8 11.5C8 13.7091 9.79086 15.5 12 15.5Z" fill="#161C27"/>
</svg>
