<svg width="24" height="24" viewBox="0 0 24 24" fill="none" xmlns="http://www.w3.org/2000/svg">
<path d="M15 22V20H17C18.1046 20 19 19.1046 19 18V15H20.9692C21.6198 15 22.0972 14.3886 21.9394 13.7575L20.5319 8.12759C19.6316 4.52636 16.3959 2 12.6838 2H12C7.02944 2 3 6.02944 3 11C3 13.6655 4.15875 16.0604 6 17.7083V22H8V16.8143L7.33383 16.2181C5.89855 14.9334 5 13.073 5 11C5 7.13401 8.13401 4 12 4H12.6838C15.4782 4 17.9139 5.90177 18.5916 8.61266L19.6884 13H17V18H13V22H15Z" fill="#161C27"/>
<path d="M11 14V7H13V14H11Z" fill="#161C27"/>
<path d="M14 8V12.5H16V8H14Z" fill="#161C27"/>
<path d="M8 8V12H10V8H8Z" fill="#161C27"/>
</svg>
